<mxfile host="app.diagrams.net" modified="2023-09-17T12:54:54.952Z" agent="Mozilla/5.0 (Macintosh; Intel Mac OS X 10_15_7) AppleWebKit/605.1.15 (KHTML, like Gecko) Version/16.6 Safari/605.1.15" version="21.7.5" etag="GAwNwcjgFtatD8vcxea4" type="github">
  <diagram name="第 1 页" id="HHsFLuvqKPOZC6Nublu-">
    <mxGraphModel>
      <root>
        <mxCell id="0" />
        <mxCell id="1" parent="0" />
      </root>
    </mxGraphModel>
  </diagram>
</mxfile>
